<?xml version="1.0" encoding="UTF-8" standalone="no"?>
<!DOCTYPE svg PUBLIC "-//W3C//DTD SVG 1.0//EN" "http://www.w3.org/TR/2001/PR-SVG-20010719/DTD/svg10.dtd">
<svg width="78cm" height="36cm" viewBox="106 149 1554 710" xmlns="http://www.w3.org/2000/svg" xmlns:xlink="http://www.w3.org/1999/xlink">
  <g>
    <rect style="fill: #ffffff" x="123.475" y="151" width="90.85" height="54"/>
    <rect style="fill: none; fill-opacity:0; stroke-width: 2; stroke-dasharray: 4; stroke: #0000ff" x="123.475" y="151" width="90.85" height="54"/>
    <text font-size="12.8" style="fill: #000000;text-anchor:middle;font-family:sans-serif;font-style:normal;font-weight:normal" x="168.9" y="173.9">
      <tspan x="168.9" y="173.9">Path found</tspan>
      <tspan x="168.9" y="189.9">in Shelf</tspan>
    </text>
  </g>
  <g>
    <rect style="fill: #ffffff" x="107.275" y="265.5" width="123.25" height="69"/>
    <rect style="fill: none; fill-opacity:0; stroke-width: 2; stroke-dasharray: 4; stroke: #0000ff" x="107.275" y="265.5" width="123.25" height="69"/>
    <text font-size="12.8" style="fill: #000000;text-anchor:middle;font-family:sans-serif;font-style:normal;font-weight:normal" x="168.9" y="295.9">
      <tspan x="168.9" y="295.9">Hash matches</tspan>
      <tspan x="168.9" y="311.9">with Shelf entry</tspan>
    </text>
  </g>
  <g>
    <path style="fill: #ffffff" d="M 153.775 403.9 L 184.025,403.9 C 188.202,403.9 191.587,412.854 191.587,423.9 C 191.587,434.946 188.202,443.9 184.025,443.9 L 153.775,443.9 C 149.598,443.9 146.212,434.946 146.212,423.9 C 146.212,412.854 149.598,403.9 153.775,403.9z"/>
    <path style="fill: none; fill-opacity:0; stroke-width: 2; stroke: #0000ff" d="M 153.775 403.9 L 184.025,403.9 C 188.202,403.9 191.587,412.854 191.587,423.9 C 191.587,434.946 188.202,443.9 184.025,443.9 L 153.775,443.9 C 149.598,443.9 146.212,434.946 146.212,423.9 C 146.212,412.854 149.598,403.9 153.775,403.9"/>
    <text font-size="12.8" style="fill: #000000;text-anchor:middle;font-family:sans-serif;font-style:normal;font-weight:normal" x="168.9" y="427.9">
      <tspan x="168.9" y="427.9">Exit</tspan>
    </text>
  </g>
  <g>
    <rect style="fill: #ffffff" x="360.15" y="273" width="97.7" height="54"/>
    <rect style="fill: none; fill-opacity:0; stroke-width: 2; stroke-dasharray: 4; stroke: #0000ff" x="360.15" y="273" width="97.7" height="54"/>
    <text font-size="12.8" style="fill: #000000;text-anchor:middle;font-family:sans-serif;font-style:normal;font-weight:normal" x="409" y="295.9">
      <tspan x="409" y="295.9">Is new hash</tspan>
      <tspan x="409" y="311.9">in Shelf</tspan>
    </text>
  </g>
  <g>
    <rect style="fill: #ffffff" x="355.7" y="552.4" width="106.6" height="54"/>
    <rect style="fill: none; fill-opacity:0; stroke-width: 2; stroke-dasharray: 4; stroke: #0000ff" x="355.7" y="552.4" width="106.6" height="54"/>
    <text font-size="12.8" style="fill: #000000;text-anchor:middle;font-family:sans-serif;font-style:normal;font-weight:normal" x="409" y="575.3">
      <tspan x="409" y="575.3">Is Shelf entry</tspan>
      <tspan x="409" y="591.3">up-to-date</tspan>
    </text>
  </g>
  <g>
    <rect style="fill: #ffffff" x="334.974" y="664.9" width="148.05" height="54"/>
    <rect style="fill: none; fill-opacity:0; stroke-width: 2; stroke-dasharray: 4; stroke: #0000ff" x="334.974" y="664.9" width="148.05" height="54"/>
    <text font-size="12.8" style="fill: #000000;text-anchor:start;font-family:sans-serif;font-style:normal;font-weight:normal" x="343.974" y="687.8">
      <tspan x="343.974" y="687.8">Update entry</tspan>
      <tspan x="343.974" y="703.8">Mark it as duplicate</tspan>
    </text>
  </g>
  <g>
    <rect style="fill: #ffffff" x="561.6" y="544.4" width="220.9" height="70"/>
    <rect style="fill: none; fill-opacity:0; stroke-width: 2; stroke-dasharray: 4; stroke: #0000ff" x="561.6" y="544.4" width="220.9" height="70"/>
    <text font-size="12.8" style="fill: #000000;text-anchor:start;font-family:sans-serif;font-style:normal;font-weight:normal" x="570.6" y="567.3">
      <tspan x="570.6" y="567.3">Update entry</tspan>
      <tspan x="570.6" y="583.3">[*PROCESS BREAK]</tspan>
      <tspan x="570.6" y="599.3">AddFile(Shelf Entry)[Recursive]</tspan>
    </text>
  </g>
  <g>
    <rect style="fill: #ffffff" x="881.6" y="273" width="97.7" height="54"/>
    <rect style="fill: none; fill-opacity:0; stroke-width: 2; stroke: #000000" x="881.6" y="273" width="97.7" height="54"/>
    <text font-size="12.8" style="fill: #000000;text-anchor:middle;font-family:sans-serif;font-style:normal;font-weight:normal" x="930.45" y="295.9">
      <tspan x="930.45" y="295.9">Is new hash</tspan>
      <tspan x="930.45" y="311.9">in Trash</tspan>
    </text>
  </g>
  <g>
    <rect style="fill: #ffffff" x="855.05" y="544.4" width="150.8" height="70"/>
    <rect style="fill: none; fill-opacity:0; stroke-width: 2; stroke: #000000" x="855.05" y="544.4" width="150.8" height="70"/>
    <text font-size="12.8" style="fill: #000000;text-anchor:middle;font-family:sans-serif;font-style:normal;font-weight:normal" x="930.45" y="567.3">
      <tspan x="930.45" y="567.3">Is Shelf entry</tspan>
      <tspan x="930.45" y="583.3">of Trash entry found</tspan>
      <tspan x="930.45" y="599.3">up-to-date</tspan>
    </text>
  </g>
  <g>
    <rect style="fill: #ffffff" x="856.424" y="664.9" width="148.05" height="54"/>
    <rect style="fill: none; fill-opacity:0; stroke-width: 2; stroke: #000000" x="856.424" y="664.9" width="148.05" height="54"/>
    <text font-size="12.8" style="fill: #000000;text-anchor:start;font-family:sans-serif;font-style:normal;font-weight:normal" x="865.424" y="687.8">
      <tspan x="865.424" y="687.8">Update entry</tspan>
      <tspan x="865.424" y="703.8">Mark it as duplicate</tspan>
    </text>
  </g>
  <g>
    <rect style="fill: #ffffff" x="1173.14" y="544.4" width="326.05" height="70"/>
    <rect style="fill: none; fill-opacity:0; stroke-width: 2; stroke: #000000" x="1173.14" y="544.4" width="326.05" height="70"/>
    <text font-size="12.8" style="fill: #000000;text-anchor:start;font-family:sans-serif;font-style:normal;font-weight:normal" x="1182.14" y="567.3">
      <tspan x="1182.14" y="567.3">Update entry</tspan>
      <tspan x="1182.14" y="583.3">Mark it as duplicate, even hash will be different</tspan>
      <tspan x="1182.14" y="599.3">AddFile(Shelf Entry)[Recursive]</tspan>
    </text>
  </g>
  <g>
    <rect style="fill: #ffffff" x="1552.01" y="281" width="106.3" height="38"/>
    <rect style="fill: none; fill-opacity:0; stroke-width: 2; stroke: #000000" x="1552.01" y="281" width="106.3" height="38"/>
    <text font-size="12.8" style="fill: #000000;text-anchor:middle;font-family:sans-serif;font-style:normal;font-weight:normal" x="1605.16" y="303.9">
      <tspan x="1605.16" y="303.9">Update entry</tspan>
    </text>
  </g>
  <g>
    <line style="fill: none; fill-opacity:0; stroke-width: 2; stroke-dasharray: 8; stroke: #000000" x1="168.9" y1="206.005" x2="168.9" y2="257.91"/>
    <polyline style="fill: none; fill-opacity:0; stroke-width: 2; stroke: #000000" points="163.9,245.263 168.9,261.263 173.9,245.263 "/>
    <text font-size="12.7998" style="fill: #000000;text-anchor:start;font-family:monospace;font-style:normal;font-weight:normal" x="168.9" y="231.31">{YES}</text>
  </g>
  <g>
    <line style="fill: none; fill-opacity:0; stroke-width: 2; stroke-dasharray: 8; stroke: #000000" x1="168.9" y1="335.482" x2="168.9" y2="396.194"/>
    <polyline style="fill: none; fill-opacity:0; stroke-width: 2; stroke: #000000" points="163.9,383.547 168.9,399.547 173.9,383.547 "/>
    <text font-size="12.7998" style="fill: #000000;text-anchor:start;font-family:monospace;font-style:normal;font-weight:normal" x="168.9" y="365.192">{YES}</text>
  </g>
  <g>
    <line style="fill: none; fill-opacity:0; stroke-width: 2; stroke-dasharray: 8; stroke: #000000" x1="409" y1="607.36" x2="408.999" y2="657.235"/>
    <polyline style="fill: none; fill-opacity:0; stroke-width: 2; stroke: #000000" points="403.999,644.587 408.999,660.587 413.999,644.587 "/>
    <text font-size="12.7998" style="fill: #000000;text-anchor:start;font-family:monospace;font-style:normal;font-weight:normal" x="409" y="631.65">{YES}</text>
  </g>
  <g>
    <line style="fill: none; fill-opacity:0; stroke-width: 2; stroke-dasharray: 8; stroke: #000000" x1="930.45" y1="615.394" x2="930.449" y2="657.235"/>
    <polyline style="fill: none; fill-opacity:0; stroke-width: 2; stroke: #000000" points="925.449,644.587 930.449,660.587 935.449,644.587 "/>
    <text font-size="12.7998" style="fill: #000000;text-anchor:start;font-family:monospace;font-style:normal;font-weight:normal" x="951.45" y="635.668">{YES}</text>
  </g>
  <g>
    <line style="fill: none; fill-opacity:0; stroke-width: 2; stroke-dasharray: 8; stroke: #000000" x1="458.849" y1="300" x2="873.896" y2="300"/>
    <polyline style="fill: none; fill-opacity:0; stroke-width: 2; stroke: #000000" points="861.249,305 877.249,300 861.249,295 "/>
    <text font-size="12.7998" style="fill: #000000;text-anchor:start;font-family:monospace;font-style:normal;font-weight:normal" x="669.724" y="296">{NO}</text>
  </g>
  <g>
    <line style="fill: none; fill-opacity:0; stroke-width: 2; stroke-dasharray: 8; stroke: #000000" x1="231.519" y1="300" x2="352.455" y2="300"/>
    <polyline style="fill: none; fill-opacity:0; stroke-width: 2; stroke: #000000" points="339.807,305 355.807,300 339.807,295 "/>
    <text font-size="12.7998" style="fill: #000000;text-anchor:start;font-family:monospace;font-style:normal;font-weight:normal" x="295.34" y="296">{NO}</text>
  </g>
  <g>
    <line style="fill: none; fill-opacity:0; stroke-width: 2; stroke-dasharray: 8; stroke: #000000" x1="980.305" y1="300" x2="1544.32" y2="300"/>
    <polyline style="fill: none; fill-opacity:0; stroke-width: 2; stroke: #000000" points="1531.68,305 1547.68,300 1531.68,295 "/>
    <text font-size="12.7998" style="fill: #000000;text-anchor:start;font-family:monospace;font-style:normal;font-weight:normal" x="1265.67" y="296">{NO}</text>
  </g>
  <g>
    <line style="fill: none; fill-opacity:0; stroke-width: 2; stroke-dasharray: 8; stroke: #000000" x1="463.307" y1="579.4" x2="553.905" y2="579.4"/>
    <polyline style="fill: none; fill-opacity:0; stroke-width: 2; stroke: #000000" points="541.258,584.4 557.258,579.4 541.258,574.4 "/>
    <text font-size="12.7998" style="fill: #000000;text-anchor:start;font-family:monospace;font-style:normal;font-weight:normal" x="511.96" y="575.4">{NO}</text>
  </g>
  <g>
    <polygon style="fill: #ffffff" points="107,792 451.8,792 463.8,804 463.8,858 107,858 "/>
    <polygon style="fill: none; fill-opacity:0; stroke-width: 2; stroke: #000000" points="107,792 451.8,792 463.8,804 463.8,858 107,858 "/>
    <polyline style="fill: none; fill-opacity:0; stroke-width: 1; stroke: #000000" points="451.8,792 451.8,804 463.8,804 "/>
    <text font-size="12.8" style="fill: #000000;text-anchor:start;font-family:monospace;font-style:normal;font-weight:normal" x="114" y="816.9">
      <tspan x="114" y="816.9">Case 1:</tspan>
      <tspan x="114" y="832.9">Serie_17(HASH-A) =&gt; Renamed Serie_18(HASH-A)</tspan>
      <tspan x="114" y="848.9">Serie_18(HASH-B) =&gt; Renamed Serie_17(HASH-B)</tspan>
    </text>
  </g>
  <g>
    <polygon style="fill: #ffffff" points="505,792 872.9,792 884.9,804 884.9,858 505,858 "/>
    <polygon style="fill: none; fill-opacity:0; stroke-width: 2; stroke: #000000" points="505,792 872.9,792 884.9,804 884.9,858 505,858 "/>
    <polyline style="fill: none; fill-opacity:0; stroke-width: 1; stroke: #000000" points="872.9,792 872.9,804 884.9,804 "/>
    <text font-size="12.8" style="fill: #000000;text-anchor:start;font-family:monospace;font-style:normal;font-weight:normal" x="512" y="816.9">
      <tspan x="512" y="816.9">Case2:</tspan>
      <tspan x="512" y="832.9">FileA(HASH-A) =&gt; Content changed: FileA(HASH-B)</tspan>
      <tspan x="512" y="848.9">FileX(HASH-B)</tspan>
    </text>
  </g>
  <g>
    <polygon style="fill: #ffffff" points="927,792 1479.7,792 1491.7,804 1491.7,858 927,858 "/>
    <polygon style="fill: none; fill-opacity:0; stroke-width: 2; stroke: #000000" points="927,792 1479.7,792 1491.7,804 1491.7,858 927,858 "/>
    <polyline style="fill: none; fill-opacity:0; stroke-width: 1; stroke: #000000" points="1479.7,792 1479.7,804 1491.7,804 "/>
    <text font-size="12.8" style="fill: #000000;text-anchor:start;font-family:monospace;font-style:normal;font-weight:normal" x="934" y="816.9">
      <tspan x="934" y="816.9">Note:</tspan>
      <tspan x="934" y="832.9">*PROCESS BREAK: If process broke before completing the next statement,</tspan>
      <tspan x="934" y="848.9">                then Case1 will create duplicate hashes in Shelf table.</tspan>
    </text>
  </g>
  <g>
    <rect style="fill: #ffffff" x="359.6" y="396.9" width="106.6" height="54"/>
    <rect style="fill: none; fill-opacity:0; stroke-width: 2; stroke-dasharray: 4; stroke: #0000ff" x="359.6" y="396.9" width="106.6" height="54"/>
    <text font-size="12.8" style="fill: #000000;text-anchor:middle;font-family:sans-serif;font-style:normal;font-weight:normal" x="412.9" y="419.8">
      <tspan x="412.9" y="419.8">Is Shelf entry</tspan>
      <tspan x="412.9" y="435.8">file exists</tspan>
    </text>
  </g>
  <g>
    <line style="fill: none; fill-opacity:0; stroke-width: 2; stroke-dasharray: 8; stroke: #000000" x1="409.881" y1="327.98" x2="411.808" y2="389.218"/>
    <polyline style="fill: none; fill-opacity:0; stroke-width: 2; stroke: #000000" points="406.413,376.734 411.914,392.569 416.408,376.419 "/>
    <text font-size="12.7998" style="fill: #000000;text-anchor:start;font-family:monospace;font-style:normal;font-weight:normal" x="410.95" y="357.95">{YES}</text>
  </g>
  <g>
    <line style="fill: none; fill-opacity:0; stroke-width: 2; stroke-dasharray: 8; stroke: #000000" x1="412.198" y1="451.879" x2="409.87" y2="544.718"/>
    <polyline style="fill: none; fill-opacity:0; stroke-width: 2; stroke: #000000" points="405.189,531.949 409.786,548.069 415.185,532.199 "/>
    <text font-size="12.7998" style="fill: #000000;text-anchor:start;font-family:monospace;font-style:normal;font-weight:normal" x="410.95" y="497.65">{YES}</text>
  </g>
  <g>
    <rect style="fill: #ffffff" x="546.876" y="388.9" width="250.35" height="70"/>
    <rect style="fill: none; fill-opacity:0; stroke-width: 2; stroke-dasharray: 4; stroke: #0000ff" x="546.876" y="388.9" width="250.35" height="70"/>
    <text font-size="12.8" style="fill: #000000;text-anchor:start;font-family:sans-serif;font-style:normal;font-weight:normal" x="555.876" y="411.8">
      <tspan x="555.876" y="411.8">Update entry</tspan>
      <tspan x="555.876" y="427.8">[*PROCESS BREAK]</tspan>
      <tspan x="555.876" y="443.8">Mark Shelf entry found as duplicate</tspan>
    </text>
  </g>
  <g>
    <line style="fill: none; fill-opacity:0; stroke-width: 2; stroke-dasharray: 8; stroke: #000000" x1="467.201" y1="423.9" x2="539.171" y2="423.9"/>
    <polyline style="fill: none; fill-opacity:0; stroke-width: 2; stroke: #000000" points="526.524,428.9 542.524,423.9 526.524,418.9 "/>
    <text font-size="12.7998" style="fill: #000000;text-anchor:start;font-family:monospace;font-style:normal;font-weight:normal" x="506.538" y="419.9">{NO}</text>
  </g>
  <g>
    <rect style="fill: #ffffff" x="856.6" y="388.9" width="150.8" height="70"/>
    <rect style="fill: none; fill-opacity:0; stroke-width: 2; stroke: #000000" x="856.6" y="388.9" width="150.8" height="70"/>
    <text font-size="12.8" style="fill: #000000;text-anchor:middle;font-family:sans-serif;font-style:normal;font-weight:normal" x="932" y="411.8">
      <tspan x="932" y="411.8">Is Shelf entry</tspan>
      <tspan x="932" y="427.8">of Trash entry found</tspan>
      <tspan x="932" y="443.8">exists</tspan>
    </text>
  </g>
  <g>
    <line style="fill: none; fill-opacity:0; stroke-width: 2; stroke-dasharray: 8; stroke: #000000" x1="930.45" y1="327" x2="931.317" y2="381.213"/>
    <polyline style="fill: none; fill-opacity:0; stroke-width: 2; stroke: #000000" points="926.116,368.647 931.371,384.565 936.114,368.487 "/>
    <text font-size="12.7998" style="fill: #000000;text-anchor:start;font-family:monospace;font-style:normal;font-weight:normal" x="951.938" y="353.46">{YES}</text>
  </g>
  <g>
    <line style="fill: none; fill-opacity:0; stroke-width: 2; stroke-dasharray: 8; stroke: #000000" x1="931.641" y1="459.899" x2="930.876" y2="536.696"/>
    <polyline style="fill: none; fill-opacity:0; stroke-width: 2; stroke: #000000" points="926.002,523.999 930.842,540.048 936.001,524.099 "/>
    <text font-size="12.7998" style="fill: #000000;text-anchor:start;font-family:monospace;font-style:normal;font-weight:normal" x="952.226" y="497.65">{YES}</text>
  </g>
  <g>
    <line style="fill: none; fill-opacity:0; stroke-width: 2; stroke-dasharray: 8; stroke: #000000" x1="1008.39" y1="423.9" x2="1224.66" y2="423.9"/>
    <polyline style="fill: none; fill-opacity:0; stroke-width: 2; stroke: #000000" points="1212.01,428.9 1228.01,423.9 1212.01,418.9 "/>
    <text font-size="12.7998" style="fill: #000000;text-anchor:start;font-family:monospace;font-style:normal;font-weight:normal" x="1140.88" y="419.9">{NO}</text>
  </g>
  <g>
    <line style="fill: none; fill-opacity:0; stroke-width: 2; stroke-dasharray: 8; stroke: #000000" x1="1006.84" y1="579.4" x2="1165.82" y2="579.4"/>
    <polyline style="fill: none; fill-opacity:0; stroke-width: 2; stroke: #000000" points="1153.18,584.4 1169.18,579.4 1153.18,574.4 "/>
    <text font-size="12.7998" style="fill: #000000;text-anchor:start;font-family:monospace;font-style:normal;font-weight:normal" x="1110.69" y="575.4">{NO}</text>
  </g>
  <g>
    <rect style="fill: #ffffff" x="1231.36" y="396.9" width="209.6" height="54"/>
    <rect style="fill: none; fill-opacity:0; stroke-width: 2; stroke: #000000" x="1231.36" y="396.9" width="209.6" height="54"/>
    <text font-size="12.8" style="fill: #000000;text-anchor:start;font-family:sans-serif;font-style:normal;font-weight:normal" x="1240.36" y="419.8">
      <tspan x="1240.36" y="419.8">Update entry</tspan>
      <tspan x="1240.36" y="435.8">Mark Shelf entry as duplicate</tspan>
    </text>
  </g>
  <g>
    <polygon style="fill: #ffffff" points="1116,702 1553.2,702 1565.2,714 1565.2,768 1116,768 "/>
    <polygon style="fill: none; fill-opacity:0; stroke-width: 2; stroke: #000000" points="1116,702 1553.2,702 1565.2,714 1565.2,768 1116,768 "/>
    <polyline style="fill: none; fill-opacity:0; stroke-width: 1; stroke: #000000" points="1553.2,702 1553.2,714 1565.2,714 "/>
    <text font-size="12.7998" style="fill: #ff0000;text-anchor:start;font-family:monospace;font-style:normal;font-weight:normal" x="1123" y="726.9">
      <tspan x="1123" y="726.9">On content changed, don't log old information in Trash, </tspan>
      <tspan x="1123" y="742.9">i.e don't create an entry in Trash table. It will make </tspan>
      <tspan x="1123" y="758.9">the fundamental logic of addFile() flawed.</tspan>
    </text>
  </g>
</svg>
